G04 #@! TF.GenerationSoftware,KiCad,Pcbnew,(5.1.2)-2*
G04 #@! TF.CreationDate,2019-12-01T00:39:07+01:00*
G04 #@! TF.ProjectId,C64,4336342e-6b69-4636-9164-5f7063625858,rev?*
G04 #@! TF.SameCoordinates,Original*
G04 #@! TF.FileFunction,Profile,NP*
%FSLAX46Y46*%
G04 Gerber Fmt 4.6, Leading zero omitted, Abs format (unit mm)*
G04 Created by KiCad (PCBNEW (5.1.2)-2) date 2019-12-01 00:39:07*
%MOMM*%
%LPD*%
G04 APERTURE LIST*
%ADD10C,0.150000*%
%ADD11C,0.200000*%
G04 APERTURE END LIST*
D10*
X45020480Y-44399200D02*
X78732900Y-44399200D01*
D11*
X271752060Y-108422440D02*
X271752060Y-110474760D01*
X276738080Y-108422440D02*
X271752060Y-108422440D01*
X276738080Y-110474760D02*
X276738080Y-108422440D01*
X271752060Y-110474760D02*
X276738080Y-110474760D01*
X242497610Y-47832010D02*
X242497610Y-49884330D01*
X247473470Y-47832010D02*
X242497610Y-47832010D01*
X247473470Y-49884330D02*
X247473470Y-47832010D01*
X242497610Y-49884330D02*
X247473470Y-49884330D01*
X228234240Y-91742260D02*
X228234240Y-96728280D01*
X228234240Y-96728280D02*
X230286560Y-96728280D01*
X230286560Y-96728280D02*
X230286560Y-91742260D01*
X230286560Y-91742260D02*
X228234240Y-91742260D01*
X291310060Y-62273180D02*
X289257740Y-62273180D01*
X291310060Y-67259200D02*
X291310060Y-62273180D01*
X289257740Y-67259200D02*
X291310060Y-67259200D01*
X289257740Y-62273180D02*
X289257740Y-67259200D01*
D10*
X118675930Y-56896000D02*
G75*
G03X119145830Y-56451500I12700J457200D01*
G01*
X146344450Y-56413400D02*
G75*
G03X146827050Y-56896000I482600J0D01*
G01*
X146344450Y-44907200D02*
X146344450Y-56413400D01*
X146344450Y-44907200D02*
G75*
G03X145836450Y-44399200I-508000J0D01*
G01*
X137743950Y-44399200D02*
X145836450Y-44399200D01*
X136148650Y-44767500D02*
X136148650Y-54394100D01*
X136148650Y-54394100D02*
X137248650Y-54394100D01*
X137248650Y-54394100D02*
X137248650Y-44843700D01*
X137743950Y-44399200D02*
G75*
G03X137248650Y-44843700I-25400J-469900D01*
G01*
X136148650Y-44767500D02*
G75*
G03X135653350Y-44399200I-431800J-63500D01*
G01*
X119851950Y-44411900D02*
X135650650Y-44399200D01*
X119851950Y-44411900D02*
G75*
G03X119153450Y-44983400I-63500J-635000D01*
G01*
X119145830Y-56451500D02*
X119153450Y-44983400D01*
X85302800Y-56413400D02*
G75*
G03X85785400Y-56896000I482600J0D01*
G01*
X85302800Y-56413400D02*
X85302800Y-44869100D01*
X85302800Y-44869100D02*
G75*
G03X84832900Y-44399200I-469900J0D01*
G01*
X80785400Y-44399200D02*
X84832900Y-44399200D01*
X80785400Y-44399200D02*
G75*
G03X80302800Y-44831000I-25400J-457200D01*
G01*
X80302800Y-54394100D02*
X80302800Y-44831000D01*
X79202800Y-54394100D02*
X80302800Y-54394100D01*
X79202800Y-44869100D02*
X79202800Y-54394100D01*
X79202800Y-44869100D02*
G75*
G03X78732900Y-44399200I-469900J0D01*
G01*
X45020480Y-44399200D02*
G75*
G03X44601380Y-44843700I12700J-431800D01*
G01*
X44601380Y-54419500D02*
X44601380Y-44843700D01*
X43501380Y-54419500D02*
X44601380Y-54419500D01*
X43501380Y-44843700D02*
X43501380Y-54419500D01*
X43501380Y-44843700D02*
G75*
G03X43031480Y-44399200I-457200J-12700D01*
G01*
X34953500Y-44399200D02*
X43031480Y-44399200D01*
X34953500Y-44399200D02*
G75*
G03X34496300Y-44856400I0J-457200D01*
G01*
X34501380Y-56451500D02*
X34496300Y-44856400D01*
X34031480Y-56896000D02*
G75*
G03X34501380Y-56451500I12700J457200D01*
G01*
D11*
X373189500Y-49758600D02*
X371081300Y-49758600D01*
X373189500Y-54241700D02*
X373189500Y-49758600D01*
X371081300Y-54241700D02*
X373189500Y-54241700D01*
X371081300Y-49758600D02*
X371081300Y-54241700D01*
D10*
X294297100Y-54229000D02*
X294297100Y-49733200D01*
X292176200Y-54229000D02*
X294297100Y-54229000D01*
X292176200Y-49733200D02*
X292176200Y-54229000D01*
X294297100Y-49733200D02*
X292176200Y-49733200D01*
X368185700Y-73748900D02*
X368185700Y-44411900D01*
X364197900Y-73748900D02*
X368185700Y-73748900D01*
X364197900Y-63754000D02*
X364197900Y-73748900D01*
X301193200Y-63754000D02*
X364197900Y-63754000D01*
X301193200Y-73748900D02*
X301193200Y-63754000D01*
X297180000Y-73748900D02*
X301193200Y-73748900D01*
X297180000Y-44450000D02*
X297180000Y-73748900D01*
X404215480Y-44411900D02*
X368185700Y-44411900D01*
X34031480Y-56896000D02*
X14998820Y-56896000D01*
X118675930Y-56896000D02*
X85785400Y-56896000D01*
X159004000Y-56896000D02*
X146827050Y-56896000D01*
X159004000Y-44450000D02*
X159004000Y-56896000D01*
X297180000Y-44450000D02*
X159004000Y-44450000D01*
X15001360Y-224693660D02*
X404215480Y-224693660D01*
X404215480Y-224696200D02*
X404215480Y-44411900D01*
X14998820Y-56896000D02*
X14998820Y-224693660D01*
M02*
