M48
; DRILL file {KiCad (5.1.2)-2} date 01-12-2019 00:42:54
; FORMAT={3:3/ absolute / metric / suppress leading zeros}
; #@! TF.CreationDate,2019-12-01T00:42:54+01:00
; #@! TF.GenerationSoftware,Kicad,Pcbnew,(5.1.2)-2
FMAT,2
METRIC,TZ
T1C0.500
T2C0.610
T3C0.700
T4C0.762
T5C0.800
T6C0.813
T7C0.914
T8C1.000
T9C1.016
T10C1.321
T11C1.500
T12C2.000
T13C2.007
T14C2.200
T15C3.200
T16C3.200
%
G90
G05
T1
X293189Y-51998
X372189Y-51998
T2
X37038Y-75448
X37038Y-77988
X37038Y-80528
X37038Y-83068
X37038Y-85608
X37038Y-88148
X37038Y-90688
X37038Y-93228
X37038Y-95768
X37038Y-98308
X37038Y-100848
X37038Y-103388
X37038Y-105928
X37038Y-108468
X37038Y-111008
X37038Y-113548
X37038Y-116088
X37038Y-118628
X37038Y-121168
X37038Y-123708
X52278Y-75448
X52278Y-77988
X52278Y-80528
X52278Y-83068
X52278Y-85608
X52278Y-88148
X52278Y-90688
X52278Y-93228
X52278Y-95768
X52278Y-98308
X52278Y-100848
X52278Y-103388
X52278Y-105928
X52278Y-108468
X52278Y-111008
X52278Y-113548
X52278Y-116088
X52278Y-118628
X52278Y-121168
X52278Y-123708
X62504Y-75438
X62504Y-77978
X62504Y-80518
X62504Y-83058
X62504Y-85598
X62504Y-88138
X62504Y-90678
X62504Y-93218
X62504Y-95758
X62504Y-98298
X62504Y-100838
X62504Y-103378
X62504Y-105918
X62504Y-108458
X62504Y-110998
X62504Y-113538
X62504Y-116078
X62504Y-118618
X62504Y-121158
X62504Y-123698
X77744Y-75438
X77744Y-77978
X77744Y-80518
X77744Y-83058
X77744Y-85598
X77744Y-88138
X77744Y-90678
X77744Y-93218
X77744Y-95758
X77744Y-98298
X77744Y-100838
X77744Y-103378
X77744Y-105918
X77744Y-108458
X77744Y-110998
X77744Y-113538
X77744Y-116078
X77744Y-118618
X77744Y-121158
X77744Y-123698
X191023Y-75357
X191023Y-77897
X191023Y-80437
X191023Y-82977
X191023Y-85517
X191023Y-88057
X191023Y-90597
X191023Y-93137
X191023Y-95677
X191023Y-98217
X191023Y-100757
X191023Y-103297
X191023Y-105837
X191023Y-108377
X191023Y-110917
X191023Y-113457
X191023Y-115997
X191023Y-118537
X191023Y-121077
X191023Y-123617
X206263Y-75357
X206263Y-77897
X206263Y-80437
X206263Y-82977
X206263Y-85517
X206263Y-88057
X206263Y-90597
X206263Y-93137
X206263Y-95677
X206263Y-98217
X206263Y-100757
X206263Y-103297
X206263Y-105837
X206263Y-108377
X206263Y-110917
X206263Y-113457
X206263Y-115997
X206263Y-118537
X206263Y-121077
X206263Y-123617
X255803Y-143942
X255803Y-146482
X255803Y-149022
X255803Y-151562
X255803Y-154102
X255803Y-156642
X255803Y-159182
X255803Y-161722
X255803Y-164262
X255803Y-166802
X255803Y-169342
X255803Y-171882
X255803Y-174422
X255803Y-176962
X255803Y-179502
X255803Y-182042
X255803Y-184582
X255803Y-187122
X255803Y-189662
X255803Y-192202
X271043Y-143942
X271043Y-146482
X271043Y-149022
X271043Y-151562
X271043Y-154102
X271043Y-156642
X271043Y-159182
X271043Y-161722
X271043Y-164262
X271043Y-166802
X271043Y-169342
X271043Y-171882
X271043Y-174422
X271043Y-176962
X271043Y-179502
X271043Y-182042
X271043Y-184582
X271043Y-187122
X271043Y-189662
X271043Y-192202
T3
X270967Y-136271
X270967Y-141351
T4
X122849Y-56896
X126809Y-56896
X130769Y-56896
X134729Y-56896
X138689Y-56896
X142649Y-56896
T5
X316883Y-129032
X331883Y-129032
X375303Y-82347
X390303Y-82347
X282473Y-129000
X282473Y-144000
X231673Y-97688
X287516Y-103933
X287586Y-100848
X287604Y-98247
X379755Y-54690
X379755Y-57190
X379755Y-62190
X379755Y-64690
X351224Y-130607
X366224Y-130607
X286283Y-128974
X286283Y-143974
X311102Y-94480
X313642Y-94480
X316182Y-94480
X318722Y-94480
X321262Y-94480
X323802Y-94480
X326342Y-94480
X328882Y-94480
X331422Y-94480
X333962Y-94480
T6
X20193Y-171628
X20295Y-174346
X20498Y-113436
X20523Y-131166
X25730Y-81712
X26797Y-206045
X29235Y-200914
X29235Y-205994
X30582Y-218669
X30930Y-104747
X31293Y-138836
X31623Y-112928
X31725Y-180670
X31750Y-206070
X31826Y-201016
X31852Y-136144
X31877Y-216205
X33071Y-174269
X33071Y-212293
X33172Y-133782
X33807Y-121056
X34315Y-214833
X34366Y-136322
X34392Y-205969
X35662Y-183210
X35789Y-140081
X36779Y-212319
X36906Y-218694
X36957Y-175565
X36982Y-133782
X36993Y-69096
X39370Y-218618
X41605Y-74143
X41986Y-208534
X42088Y-169240
X42139Y-123546
X42139Y-193269
X44061Y-71666
X44602Y-174320
X44704Y-123546
X45898Y-66650
X46025Y-62789
X47168Y-175616
X47269Y-81763
X47269Y-133782
X47828Y-155270
X48387Y-161646
X49657Y-142646
X49708Y-173050
X49759Y-133807
X50978Y-176809
X51079Y-62586
X53035Y-63932
X54762Y-62763
X54839Y-128702
X57175Y-208458
X57186Y-169139
X57226Y-218643
X57277Y-126063
X59842Y-174269
X62382Y-194589
X62433Y-142621
X62459Y-133756
X63627Y-140081
X63627Y-145059
X63678Y-137490
X63729Y-181254
X65024Y-80467
X65608Y-77927
X65608Y-176809
X67589Y-79248
X68783Y-99517
X68783Y-102083
X69367Y-206070
X69393Y-124104
X69393Y-129235
X69418Y-91821
X70663Y-72873
X71501Y-66446
X71933Y-208483
X72492Y-218618
X72542Y-131089
X72568Y-75311
X72669Y-70282
X76352Y-176784
X77673Y-165481
X78689Y-186944
X78943Y-128702
X79553Y-72847
X80239Y-89383
X80264Y-97003
X80391Y-94361
X81458Y-105867
X81509Y-91948
X82728Y-78562
X82753Y-70282
X82779Y-143942
X84607Y-131140
X85979Y-89332
X87173Y-169316
X87173Y-218719
X87754Y-126355
X87782Y-208636
X90449Y-142697
X90576Y-84277
X90678Y-71552
X91643Y-119837
X92354Y-105766
X92939Y-204673
X93015Y-67742
X94234Y-137643
X94818Y-188316
X94818Y-193294
X95453Y-203530
X95606Y-108356
X96876Y-110871
X98069Y-95707
X98171Y-93116
X100482Y-131293
X100584Y-133782
X102337Y-169266
X102984Y-208636
X103073Y-218694
X103200Y-105791
X105766Y-89281
X109118Y-141453
X109525Y-115875
X111963Y-140106
X112014Y-119685
X113436Y-157912
X113614Y-128651
X114097Y-145186
X114808Y-70256
X115164Y-122301
X115849Y-89306
X116408Y-181280
X116459Y-183820
X117653Y-123571
X118364Y-131267
X119126Y-63881
X119253Y-67767
X120777Y-218745
X120980Y-108229
X121082Y-72212
X122644Y-169253
X123342Y-208534
X123393Y-133782
X125959Y-180594
X125959Y-183210
X126086Y-121031
X127254Y-173025
X129692Y-175565
X129794Y-159080
X129972Y-146558
X130683Y-60808
X130988Y-119761
X131140Y-76733
X131750Y-84252
X132537Y-147803
X132944Y-180746
X133629Y-114630
X134696Y-189662
X134849Y-152781
X134849Y-187071
X134874Y-207366
X134950Y-93167
X135407Y-156515
X135534Y-76632
X135941Y-203545
X136017Y-198476
X136119Y-79172
X138684Y-126060
X138735Y-143916
X141199Y-218719
X141224Y-72136
X141249Y-129946
X143175Y-169245
X143180Y-133680
X143535Y-110769
X143637Y-208636
X145796Y-85471
X146304Y-143891
X147574Y-126086
X147574Y-171831
X147752Y-67615
X148760Y-203479
X148877Y-187018
X148920Y-75286
X149454Y-152705
X150012Y-200965
X150063Y-175565
X150089Y-180721
X150089Y-195961
X150089Y-198399
X150139Y-72111
X150241Y-117170
X151384Y-183286
X152070Y-146456
X152375Y-128753
X152552Y-193370
X152578Y-200965
X152578Y-204851
X152654Y-114630
X152654Y-161722
X153416Y-164262
X153873Y-198476
X153975Y-140056
X154051Y-137516
X154483Y-183261
X155270Y-113411
X156464Y-141300
X156566Y-126721
X157175Y-89433
X157785Y-114656
X157861Y-94463
X158979Y-138405
X159029Y-218796
X160299Y-105842
X161468Y-208559
X161493Y-169291
X161569Y-85522
X161620Y-89256
X162255Y-133731
X162535Y-110769
X164008Y-84226
X164059Y-180086
X164109Y-183312
X164160Y-98120
X164414Y-67716
X165405Y-129286
X165430Y-140030
X165456Y-135687
X165481Y-93142
X166573Y-183261
X167005Y-195936
X167030Y-160401
X167208Y-148996
X167310Y-134417
X167335Y-117221
X167843Y-201041
X167919Y-75286
X167996Y-103200
X168300Y-156591
X169113Y-198425
X169367Y-159080
X169393Y-161671
X169901Y-117170
X170383Y-208610
X170409Y-103175
X170434Y-143916
X170434Y-182042
X170459Y-146380
X170510Y-176987
X171679Y-100686
X172974Y-176987
X172984Y-146434
X173101Y-98146
X175489Y-218846
X175565Y-138201
X175616Y-127356
X177470Y-169316
X177521Y-133706
X178079Y-208661
X178105Y-129870
X178257Y-110795
X179299Y-177038
X180746Y-138913
X181356Y-135026
X181839Y-176936
X181864Y-171907
X181940Y-210693
X183109Y-174346
X183134Y-202260
X183159Y-199695
X183210Y-154102
X183312Y-90526
X183871Y-150216
X184252Y-94336
X184429Y-164186
X184429Y-195986
X184480Y-183286
X184506Y-124790
X184506Y-142646
X184531Y-72847
X184582Y-81661
X185369Y-160350
X185572Y-199746
X185674Y-203606
X185750Y-151486
X185750Y-189535
X185776Y-85471
X185801Y-148996
X185928Y-104521
X186868Y-195936
X186893Y-181966
X186969Y-192202
X187020Y-133655
X187046Y-114681
X187071Y-73990
X187071Y-82931
X187071Y-137592
X187096Y-70307
X187147Y-63932
X187173Y-77902
X187173Y-80366
X187909Y-156591
X187960Y-161747
X188290Y-176835
X188366Y-119710
X188392Y-122276
X188900Y-218846
X191287Y-198501
X193497Y-75387
X193523Y-117196
X194056Y-154000
X194132Y-77851
X194158Y-90678
X194742Y-82956
X194818Y-123596
X195809Y-198501
X195885Y-161747
X195885Y-164287
X195885Y-209906
X195910Y-187020
X195961Y-142596
X195986Y-80493
X195986Y-140056
X196774Y-74041
X197129Y-184582
X197180Y-145186
X197206Y-152832
X197256Y-150266
X197866Y-168021
X198374Y-195961
X198425Y-203708
X198450Y-121031
X198476Y-136296
X198501Y-75286
X198526Y-79121
X198603Y-72238
X198603Y-140005
X199619Y-206019
X199695Y-192049
X199720Y-208636
X199796Y-83058
X199822Y-189586
X201562Y-110924
X201676Y-113360
X202032Y-131242
X202489Y-66472
X202844Y-183286
X202946Y-76759
X203022Y-79146
X203454Y-197231
X203556Y-151587
X203581Y-148971
X203683Y-146456
X205029Y-66472
X205943Y-180137
X206756Y-175641
X208839Y-76606
X209144Y-190881
X209271Y-156693
X209906Y-81712
X209906Y-154127
X210515Y-84303
X210541Y-218846
X210591Y-143866
X210591Y-148946
X211125Y-86843
X211303Y-89306
X212395Y-173228
X212471Y-91872
X212496Y-96901
X212547Y-94386
X212547Y-99466
X212623Y-67716
X213182Y-121006
X213893Y-170637
X214351Y-104597
X216332Y-110922
X217221Y-140716
X217602Y-144602
X217678Y-147091
X218110Y-83033
X218186Y-81001
X218211Y-77318
X218237Y-85471
X218262Y-79172
X218846Y-88011
X218867Y-170607
X218923Y-133731
X218973Y-67793
X219405Y-123698
X219456Y-142672
X219583Y-90576
X220142Y-93370
X220624Y-138836
X220650Y-218872
X220701Y-95682
X220701Y-121107
X220751Y-98146
X221285Y-174600
X221361Y-100711
X221386Y-141427
X221437Y-123596
X221437Y-126213
X222021Y-103251
X222580Y-84328
X222656Y-81737
X222783Y-66446
X222809Y-62001
X225323Y-86182
X228346Y-188417
X228956Y-131216
X229592Y-64371
X230251Y-109779
X230302Y-126695
X230835Y-181991
X231546Y-197079
X231597Y-129337
X231927Y-175565
X234025Y-206085
X234036Y-176251
X234036Y-203530
X234086Y-128651
X235331Y-185826
X235382Y-201092
X236626Y-174396
X237338Y-178181
X238455Y-206223
X239725Y-143281
X239751Y-146329
X239878Y-114046
X241071Y-152146
X241071Y-168097
X241656Y-162992
X242316Y-146406
X242418Y-114706
X242849Y-148971
X242951Y-193548
X243484Y-152730
X243662Y-195885
X244196Y-156667
X244856Y-159131
X244856Y-193243
X244932Y-198501
X245008Y-171856
X246024Y-184683
X246126Y-169367
X246126Y-176936
X247904Y-156515
X247929Y-152806
X247955Y-185852
X247980Y-146406
X247980Y-161163
X247980Y-162916
X247980Y-170586
X247980Y-180746
X247980Y-187757
X248006Y-164795
X248006Y-173101
X248006Y-178181
X248006Y-183210
X248006Y-189662
X248031Y-129896
X248031Y-131851
X248031Y-141351
X248031Y-148920
X248031Y-154686
X248031Y-166776
X248031Y-168707
X248031Y-175616
X248031Y-193421
X248056Y-135712
X248082Y-137566
X248082Y-143916
X248082Y-159131
X248082Y-191541
X248107Y-133706
X248107Y-139471
X248133Y-195936
X249243Y-198631
X250215Y-125908
X251384Y-109957
X251917Y-106528
X253035Y-180670
X253060Y-193472
X253086Y-190957
X253111Y-135738
X253111Y-188239
X253136Y-139548
X253136Y-153441
X253136Y-161112
X253136Y-175717
X253136Y-183312
X253136Y-185699
X253162Y-173152
X253162Y-178232
X253187Y-137592
X253187Y-141478
X253213Y-133858
X253238Y-131851
X255626Y-196037
X256946Y-138252
X256972Y-136296
X258318Y-119761
X259537Y-106502
X260121Y-170002
X260147Y-166827
X260172Y-161722
X260223Y-119812
X260731Y-184556
X260731Y-193523
X261341Y-189611
X261391Y-140284
X262128Y-119761
X263195Y-218854
X264008Y-119761
X264693Y-166472
X266471Y-159182
X266497Y-161722
X266497Y-164262
X266522Y-147752
X266573Y-119761
X267233Y-106553
X267843Y-141478
X268478Y-119736
X269037Y-139522
X270383Y-119761
X271577Y-106502
X272263Y-119812
X273482Y-218237
X274142Y-119812
X276022Y-193472
X276098Y-119812
X277216Y-188366
X277343Y-190957
X277368Y-125120
X277978Y-119736
X278028Y-195986
X279756Y-189484
X279806Y-144018
X282600Y-132563
X284988Y-99543
X285013Y-112878
X285191Y-53746
X287503Y-119126
X287579Y-122326
X287630Y-112827
X287686Y-106348
X288544Y-195936
X288699Y-199146
X289458Y-120447
X293319Y-109728
X295300Y-67818
X295834Y-104673
X296110Y-76124
X297790Y-119761
X297866Y-75997
X298094Y-91262
X301396Y-116027
X306654Y-97739
X307061Y-196088
X307137Y-218186
X311099Y-113487
X311633Y-171171
X317221Y-218135
X318084Y-100152
X319329Y-97638
X322275Y-101981
X322478Y-97587
X323621Y-196088
X324409Y-138125
X324942Y-107112
X326796Y-156083
X332588Y-196164
X332638Y-91973
X333832Y-109499
X337058Y-97638
X341351Y-122047
X343002Y-69012
X347167Y-173609
X347320Y-68555
X349758Y-166268
X352323Y-75540
X352349Y-135128
X354355Y-69063
X354432Y-73533
X359319Y-75001
X360655Y-89459
X361391Y-82423
X361925Y-78003
X362483Y-87503
X362494Y-154592
X362585Y-89510
X363647Y-158031
X363957Y-79223
X365709Y-206121
X365760Y-193472
X365811Y-83007
X366852Y-169977
X366954Y-199720
X371475Y-127508
X371602Y-156921
X373939Y-183515
X374015Y-163017
X376403Y-183642
X376504Y-163093
X382168Y-192126
X382245Y-102972
X382397Y-204775
X382880Y-198425
X385394Y-192227
X385445Y-204724
X393751Y-175692
X394411Y-204800
X394919Y-139548
X394945Y-147625
X399796Y-165456
X339257Y-92240
X344257Y-92240
X190932Y-171780
X203632Y-171780
X314223Y-161138
X326923Y-161138
X97961Y-185722
X97961Y-188262
X97961Y-190802
X97961Y-193342
X97961Y-195882
X97961Y-198422
X97961Y-200962
X97961Y-203502
X105581Y-185722
X105581Y-188262
X105581Y-190802
X105581Y-193342
X105581Y-195882
X105581Y-198422
X105581Y-200962
X105581Y-203502
X298882Y-166853
X301422Y-166853
X303962Y-166853
X279857Y-151587
X292557Y-151587
X237924Y-123622
X237924Y-136322
X67531Y-169222
X80231Y-169222
X87981Y-75367
X87981Y-77907
X87981Y-80447
X87981Y-82987
X87981Y-85527
X87981Y-88067
X87981Y-90607
X87981Y-93147
X87981Y-95687
X87981Y-98227
X87981Y-100767
X87981Y-103307
X103221Y-75367
X103221Y-77907
X103221Y-80447
X103221Y-82987
X103221Y-85527
X103221Y-88067
X103221Y-90607
X103221Y-93147
X103221Y-95687
X103221Y-98227
X103221Y-100767
X103221Y-103307
X282372Y-166878
X295072Y-166878
X384226Y-61636
X384226Y-63636
X297002Y-149149
X297002Y-151689
X297002Y-154229
X291414Y-185674
X304114Y-185674
X382179Y-177678
X394879Y-177678
X137521Y-67701
X150221Y-67701
X347243Y-158699
X359943Y-158699
X243459Y-206197
X243459Y-218897
X222794Y-50460
X222794Y-66330
X110846Y-64130
X123546Y-64130
X52461Y-185722
X52461Y-188262
X52461Y-190802
X52461Y-193342
X52461Y-195882
X52461Y-198422
X52461Y-200962
X52461Y-203502
X60081Y-185722
X60081Y-188262
X60081Y-190802
X60081Y-193342
X60081Y-195882
X60081Y-198422
X60081Y-200962
X60081Y-203502
X173050Y-188265
X173050Y-190805
X173050Y-193345
X173050Y-195885
X173050Y-198425
X173050Y-200965
X173050Y-203505
X180670Y-188265
X180670Y-190805
X180670Y-193345
X180670Y-195885
X180670Y-198425
X180670Y-200965
X180670Y-203505
X382168Y-181407
X394868Y-181407
X351815Y-169977
X364515Y-169977
X367053Y-119832
X367076Y-114734
X374675Y-114734
X374701Y-119826
X212512Y-117892
X212512Y-130592
X328016Y-191440
X340716Y-191440
X215367Y-173203
X228067Y-173203
X52227Y-208445
X64927Y-208445
X191999Y-190805
X191999Y-203505
X348615Y-184531
X348615Y-192151
X351155Y-184531
X351155Y-192151
X353695Y-184531
X353695Y-192151
X356235Y-184531
X356235Y-192151
X358775Y-184531
X358775Y-192151
X361315Y-184531
X361315Y-192151
X363855Y-184531
X363855Y-192151
X160304Y-128565
X173004Y-128565
X276860Y-115966
X279400Y-115966
X20396Y-152883
X33096Y-152883
X97881Y-208600
X110581Y-208600
X311760Y-135458
X324460Y-135458
X138844Y-75288
X138844Y-77828
X138844Y-80368
X138844Y-82908
X138844Y-85448
X138844Y-87988
X138844Y-90528
X138844Y-93068
X138844Y-95608
X138844Y-98148
X138844Y-100688
X138844Y-103228
X154084Y-75288
X154084Y-77828
X154084Y-80368
X154084Y-82908
X154084Y-85448
X154084Y-87988
X154084Y-90528
X154084Y-93068
X154084Y-95608
X154084Y-98148
X154084Y-100688
X154084Y-103228
X291998Y-177546
X304698Y-177546
X260906Y-206273
X263446Y-206273
X118255Y-185715
X118255Y-188255
X118255Y-190795
X118255Y-193335
X118255Y-195875
X118255Y-198415
X118255Y-200955
X118255Y-203495
X125875Y-185715
X125875Y-188255
X125875Y-190795
X125875Y-193335
X125875Y-195875
X125875Y-198415
X125875Y-200955
X125875Y-203495
X314173Y-163576
X326873Y-163576
X327050Y-138201
X327050Y-150901
X20625Y-160376
X33325Y-160376
X282499Y-119761
X295199Y-119761
X311582Y-188189
X324282Y-188189
X237871Y-138735
X237871Y-151435
X36961Y-185722
X36961Y-188262
X36961Y-190802
X36961Y-193342
X36961Y-195882
X36961Y-198422
X36961Y-200962
X44581Y-185722
X44581Y-188262
X44581Y-190802
X44581Y-193342
X44581Y-195882
X44581Y-198422
X44581Y-200962
X282285Y-190830
X284785Y-188330
X287285Y-190830
X328905Y-206070
X328905Y-218770
X262153Y-128626
X274853Y-128626
X334594Y-130607
X347294Y-130607
X282438Y-116627
X295138Y-116627
X36982Y-208458
X49682Y-208458
X20461Y-164222
X33161Y-164222
X318727Y-107173
X318727Y-119873
X173025Y-149022
X173025Y-151562
X173025Y-154102
X173025Y-156642
X173025Y-159182
X173025Y-161722
X173025Y-164262
X180645Y-149022
X180645Y-151562
X180645Y-154102
X180645Y-156642
X180645Y-159182
X180645Y-161722
X180645Y-164262
X172999Y-208686
X185699Y-208686
X311531Y-190830
X324231Y-190830
X349758Y-181508
X362458Y-181508
X352425Y-164795
X365125Y-164795
X313588Y-107188
X313588Y-119888
X333578Y-206121
X372144Y-206121
X267741Y-206019
X267741Y-218719
X209296Y-170485
X209296Y-173025
X319354Y-183845
X332054Y-183845
X36962Y-169184
X49662Y-169184
X20467Y-128641
X33167Y-128641
X138735Y-146431
X138735Y-148971
X138735Y-151511
X138735Y-154051
X138735Y-156591
X138735Y-159131
X138735Y-161671
X138735Y-164211
X146355Y-146431
X146355Y-148971
X146355Y-151511
X146355Y-154051
X146355Y-156591
X146355Y-159131
X146355Y-161671
X146355Y-164211
X155169Y-208610
X167869Y-208610
X173172Y-75306
X173172Y-77846
X173172Y-80386
X173172Y-82926
X173172Y-85466
X173172Y-88006
X173172Y-90546
X173172Y-93086
X173172Y-95626
X180792Y-75306
X180792Y-77846
X180792Y-80386
X180792Y-82926
X180792Y-85466
X180792Y-88006
X180792Y-90546
X180792Y-93086
X180792Y-95626
X375412Y-67275
X375412Y-69275
X36965Y-148968
X36965Y-151508
X36965Y-154048
X36965Y-156588
X36965Y-159128
X36965Y-161668
X36965Y-164208
X44585Y-148968
X44585Y-151508
X44585Y-154048
X44585Y-156588
X44585Y-159128
X44585Y-161668
X44585Y-164208
X120879Y-127432
X133579Y-127432
X138735Y-208585
X151435Y-208585
X290043Y-161239
X302743Y-161239
X313563Y-128067
X313563Y-130607
X97993Y-169189
X110693Y-169189
X291770Y-170688
X304470Y-170688
X384099Y-67351
X384099Y-69351
X67513Y-146357
X67513Y-148897
X67513Y-151437
X67513Y-153977
X67513Y-156517
X67513Y-159057
X67513Y-161597
X67513Y-164137
X75133Y-146357
X75133Y-148897
X75133Y-151437
X75133Y-153977
X75133Y-156517
X75133Y-159057
X75133Y-161597
X75133Y-164137
X300805Y-119835
X303345Y-119835
X305885Y-119835
X301422Y-130556
X301422Y-143256
X20472Y-145136
X33172Y-145136
X344729Y-135153
X344729Y-137693
X344729Y-140233
X344729Y-142773
X344729Y-145313
X344729Y-147853
X344729Y-150393
X352349Y-135153
X352349Y-137693
X352349Y-140233
X352349Y-142773
X352349Y-145313
X352349Y-147853
X352349Y-150393
X52273Y-169215
X64973Y-169215
X311582Y-133096
X324282Y-133096
X330835Y-162357
X330835Y-169977
X333375Y-162357
X333375Y-169977
X335915Y-162357
X335915Y-169977
X338455Y-162357
X338455Y-169977
X340995Y-162357
X340995Y-169977
X343535Y-162357
X343535Y-169977
X346075Y-162357
X346075Y-169977
X348615Y-162357
X348615Y-169977
X291948Y-175108
X304648Y-175108
X211709Y-184734
X211709Y-197434
X194767Y-128676
X207467Y-128676
X160284Y-131105
X172984Y-131105
X43904Y-177932
X46444Y-177932
X97978Y-146365
X97978Y-148905
X97978Y-151445
X97978Y-153985
X97978Y-156525
X97978Y-159065
X97978Y-161605
X97978Y-164145
X105598Y-146365
X105598Y-148905
X105598Y-151445
X105598Y-153985
X105598Y-156525
X105598Y-159065
X105598Y-161605
X105598Y-164145
X295072Y-180823
X297612Y-180823
X300152Y-180823
X353035Y-178892
X365735Y-178892
X215600Y-184810
X215600Y-197510
X334650Y-180056
X347350Y-180056
X113208Y-108179
X125908Y-108179
X20452Y-149004
X33152Y-149004
X20411Y-178079
X33111Y-178079
X331343Y-206146
X331343Y-218846
X295224Y-130658
X297764Y-130658
X313004Y-173711
X313004Y-181331
X315544Y-173711
X315544Y-181331
X318084Y-173711
X318084Y-181331
X320624Y-173711
X320624Y-181331
X323164Y-173711
X323164Y-181331
X325704Y-173711
X325704Y-181331
X328244Y-173711
X328244Y-181331
X330784Y-173711
X330784Y-181331
X20447Y-190779
X33147Y-190779
X372140Y-218785
X384840Y-218785
X301488Y-101956
X314188Y-101956
X67432Y-208448
X80132Y-208448
X291414Y-190983
X304114Y-190983
X113241Y-75275
X113241Y-77815
X113241Y-80355
X113241Y-82895
X113241Y-85435
X113241Y-87975
X113241Y-90515
X113241Y-93055
X113241Y-95595
X113241Y-98135
X113241Y-100675
X113241Y-103215
X128481Y-75275
X128481Y-77815
X128481Y-80355
X128481Y-82895
X128481Y-85435
X128481Y-87975
X128481Y-90515
X128481Y-93055
X128481Y-95595
X128481Y-98135
X128481Y-100675
X128481Y-103215
X275565Y-171933
X288265Y-171933
X190919Y-133761
X190919Y-136301
X190919Y-138841
X190919Y-141381
X190919Y-143921
X190919Y-146461
X190919Y-149001
X190919Y-151541
X190919Y-154081
X190919Y-156621
X190919Y-159161
X190919Y-161701
X190919Y-164241
X190919Y-166781
X206159Y-133761
X206159Y-136301
X206159Y-138841
X206159Y-141381
X206159Y-143921
X206159Y-146461
X206159Y-149001
X206159Y-151541
X206159Y-154081
X206159Y-156621
X206159Y-159161
X206159Y-161701
X206159Y-164241
X206159Y-166781
X316205Y-107061
X316205Y-119761
X279806Y-146583
X292506Y-146583
X314289Y-171237
X326989Y-171237
X87833Y-108280
X100533Y-108280
X291338Y-183337
X304038Y-183337
X156500Y-146431
X156500Y-148971
X156500Y-151511
X156500Y-154051
X156500Y-156591
X156500Y-159131
X156500Y-161671
X156500Y-164211
X164120Y-146431
X164120Y-148971
X164120Y-151511
X164120Y-154051
X164120Y-156591
X164120Y-159131
X164120Y-161671
X164120Y-164211
X184526Y-127366
X184526Y-129906
X227157Y-184607
X227157Y-197307
X82690Y-208437
X95390Y-208437
X20452Y-156604
X33152Y-156604
X234036Y-123535
X234036Y-136235
X61961Y-63947
X64501Y-63947
X67041Y-63947
X69581Y-63947
X72121Y-63947
X74661Y-63947
X77201Y-63947
X79741Y-63947
X377838Y-86639
X377838Y-91719
X381838Y-86639
X381838Y-91719
X385838Y-86639
X385838Y-91719
X398838Y-86639
X398838Y-91719
X325222Y-113665
X363788Y-113665
X118288Y-208559
X130988Y-208559
X331775Y-158521
X344475Y-158521
X315366Y-143688
X315366Y-148514
X218034Y-184785
X218034Y-197485
X234025Y-155291
X234025Y-167991
X301574Y-113360
X304114Y-113360
X306654Y-113360
X173126Y-169189
X185826Y-169189
X239227Y-118450
X241767Y-118450
X372202Y-86665
X374202Y-86665
X173177Y-108306
X185877Y-108306
X20419Y-169078
X33119Y-169078
X118255Y-146411
X118255Y-148951
X118255Y-151491
X118255Y-154031
X118255Y-156571
X118255Y-159111
X118255Y-161651
X118255Y-164191
X125875Y-146411
X125875Y-148951
X125875Y-151491
X125875Y-154031
X125875Y-156571
X125875Y-159111
X125875Y-161651
X125875Y-164191
X234137Y-138786
X234137Y-151486
X84277Y-61620
X84277Y-74320
X290170Y-128676
X290170Y-141376
X82715Y-146357
X82715Y-148897
X82715Y-151437
X82715Y-153977
X82715Y-156517
X82715Y-159057
X82715Y-161597
X82715Y-164137
X90335Y-146357
X90335Y-148897
X90335Y-151437
X90335Y-153977
X90335Y-156517
X90335Y-159057
X90335Y-161597
X90335Y-164137
X356743Y-174498
X359283Y-174498
X361823Y-174498
X279806Y-154153
X292506Y-154153
X321709Y-107132
X321709Y-119832
X82982Y-169240
X95682Y-169240
X352425Y-162382
X365125Y-162382
X378857Y-67208
X380857Y-67208
X301498Y-145771
X301498Y-158471
X238476Y-194742
X238476Y-197282
X238476Y-199822
X279883Y-156566
X292583Y-156566
X336031Y-185369
X338531Y-187869
X341031Y-185369
X302199Y-98262
X314899Y-98262
X357403Y-135001
X357403Y-137541
X357403Y-140081
X357403Y-142621
X357403Y-145161
X357403Y-147701
X357403Y-150241
X357403Y-152781
X365023Y-135001
X365023Y-137541
X365023Y-140081
X365023Y-142621
X365023Y-145161
X365023Y-147701
X365023Y-150241
X365023Y-152781
X311074Y-107239
X311074Y-119939
X298254Y-98082
X298254Y-100622
X377841Y-78562
X379841Y-78562
X81961Y-185722
X81961Y-188262
X81961Y-190802
X81961Y-193342
X81961Y-195882
X81961Y-198422
X81961Y-200962
X81961Y-203502
X89581Y-185722
X89581Y-188262
X89581Y-190802
X89581Y-193342
X89581Y-195882
X89581Y-198422
X89581Y-200962
X89581Y-203502
X331978Y-135128
X331978Y-137668
X331978Y-140208
X331978Y-142748
X331978Y-145288
X331978Y-147828
X331978Y-150368
X339598Y-135128
X339598Y-137668
X339598Y-140208
X339598Y-142748
X339598Y-145288
X339598Y-147828
X339598Y-150368
X311582Y-185699
X324282Y-185699
X349235Y-91806
X361935Y-91806
X127406Y-63871
X140106Y-63871
X218770Y-117881
X218770Y-130581
X138735Y-108153
X151435Y-108153
X168544Y-193380
X168544Y-206080
X48402Y-190612
X48402Y-193152
X52189Y-146408
X52189Y-148948
X52189Y-151488
X52189Y-154028
X52189Y-156568
X52189Y-159108
X52189Y-161648
X52189Y-164188
X59809Y-146408
X59809Y-148948
X59809Y-151488
X59809Y-154028
X59809Y-156568
X59809Y-159108
X59809Y-161648
X59809Y-164188
X156500Y-188252
X156500Y-190792
X156500Y-193332
X156500Y-195872
X156500Y-198412
X156500Y-200952
X156500Y-203492
X164120Y-188252
X164120Y-190792
X164120Y-193332
X164120Y-195872
X164120Y-198412
X164120Y-200952
X164120Y-203492
X147660Y-63901
X160360Y-63901
X194666Y-190830
X194666Y-203530
X275351Y-179527
X288051Y-179527
X329514Y-188925
X342214Y-188925
X160315Y-126111
X173015Y-126111
X134813Y-137561
X147513Y-137561
X232225Y-118529
X234765Y-118529
X275184Y-183159
X287884Y-183159
X225684Y-218874
X228224Y-218874
X138669Y-180746
X138669Y-183286
X138669Y-185826
X138669Y-188366
X138669Y-190906
X138669Y-193446
X138669Y-195986
X138669Y-198526
X138669Y-201066
X138669Y-203606
X146289Y-180746
X146289Y-183286
X146289Y-185826
X146289Y-188366
X146289Y-190906
X146289Y-193446
X146289Y-195986
X146289Y-198526
X146289Y-201066
X146289Y-203606
X78887Y-180523
X91587Y-180523
X326288Y-206096
X326288Y-218796
X247995Y-206146
X247995Y-218846
X156421Y-169233
X169121Y-169233
X20544Y-188138
X33244Y-188138
X67461Y-185722
X67461Y-188262
X67461Y-190802
X67461Y-193342
X67461Y-195882
X67461Y-198422
X67461Y-200962
X67461Y-203502
X75081Y-185722
X75081Y-188262
X75081Y-190802
X75081Y-193342
X75081Y-195882
X75081Y-198422
X75081Y-200962
X75081Y-203502
X251816Y-206197
X251816Y-218897
X279806Y-159080
X292506Y-159080
X20422Y-193269
X33122Y-193269
X286192Y-206228
X323783Y-206197
X275504Y-175605
X288204Y-175605
X62545Y-128666
X75245Y-128666
X20406Y-185638
X33106Y-185638
X213677Y-133749
X213677Y-136289
X213677Y-138829
X213677Y-141369
X213677Y-143909
X213677Y-146449
X213677Y-148989
X213677Y-151529
X213677Y-154069
X213677Y-156609
X213677Y-159149
X213677Y-161689
X213677Y-164229
X213677Y-166769
X228917Y-133749
X228917Y-136289
X228917Y-138829
X228917Y-141369
X228917Y-143909
X228917Y-146449
X228917Y-148989
X228917Y-151529
X228917Y-154069
X228917Y-156609
X228917Y-159149
X228917Y-161689
X228917Y-164229
X228917Y-166769
X27813Y-72918
X27813Y-75458
X27813Y-77998
X27813Y-80538
X27813Y-83078
X27813Y-85618
X27813Y-88158
X27813Y-90698
X27813Y-93238
X27813Y-95778
X27813Y-98318
X27813Y-100858
X27813Y-103398
X27813Y-105938
X27813Y-108478
X27813Y-111018
X27813Y-113558
X27813Y-116098
X27813Y-118638
X27813Y-121178
X122286Y-67747
X134986Y-67747
X138748Y-169278
X151448Y-169278
X352273Y-167513
X364973Y-167513
X110703Y-146472
X110703Y-149012
X110703Y-151552
X110703Y-154092
X110703Y-156632
X110703Y-159172
X110703Y-161712
X110703Y-164252
X291313Y-188341
X304013Y-188341
X118262Y-169144
X130962Y-169144
X237795Y-155270
X237795Y-167970
X262255Y-131140
X274955Y-131140
X20544Y-195819
X33244Y-195819
X234787Y-218808
X237327Y-218808
X220523Y-184760
X220523Y-197460
X223236Y-184719
X223236Y-197419
X314350Y-153518
X327050Y-153518
X279756Y-149022
X292456Y-149022
X37064Y-128666
X49764Y-128666
X290297Y-163525
X302997Y-163525
X110734Y-185776
X110734Y-188316
X110734Y-190856
X110734Y-193396
X110734Y-195936
X110734Y-198476
X110734Y-201016
X110734Y-203556
T7
X395448Y-194688
X395448Y-197228
X395448Y-199768
T8
X337096Y-154788
X306019Y-79248
X306019Y-84328
X308559Y-79248
X308559Y-84328
X311099Y-79248
X311099Y-84328
X313639Y-79248
X313639Y-84328
X316179Y-79248
X316179Y-84328
X318719Y-79248
X318719Y-84328
X321259Y-79248
X321259Y-84328
X323799Y-79248
X323799Y-84328
X326339Y-79248
X326339Y-84328
X328879Y-79248
X328879Y-84328
X331419Y-79248
X331419Y-84328
X333959Y-79248
X333959Y-84328
X336499Y-79248
X336499Y-84328
X339039Y-79248
X339039Y-84328
X341579Y-79248
X341579Y-84328
X344119Y-79248
X344119Y-84328
X346659Y-79248
X346659Y-84328
X349199Y-79248
X349199Y-84328
X351739Y-79248
X351739Y-84328
X354279Y-79248
X354279Y-84328
X356819Y-79248
X356819Y-84328
X359359Y-79248
X359359Y-84328
X348336Y-155016
X342740Y-154676
T9
X375295Y-124927
X375295Y-127467
X375295Y-130007
X384653Y-138120
X384660Y-144160
X384660Y-147096
X384665Y-150150
X384668Y-140993
X387861Y-142524
X387906Y-145390
X387921Y-139850
X387921Y-148366
X275323Y-199103
X277863Y-199103
X280403Y-199103
X301549Y-107036
X304089Y-107036
X306629Y-107036
X384757Y-106436
X384764Y-112476
X384764Y-115413
X384769Y-118466
X384772Y-109309
X387965Y-110841
X388010Y-113706
X388026Y-108166
X388026Y-116683
T10
X387096Y-63932
X387134Y-71209
X387248Y-78372
X389649Y-66256
X389725Y-76200
X392316Y-64122
X392316Y-71247
X392544Y-78296
X402104Y-66018
X402104Y-76018
X204165Y-48717
X214325Y-48717
X174422Y-48666
X184582Y-48666
T11
X201625Y-58877
X204165Y-61417
X209245Y-58877
X214325Y-61417
X216865Y-58877
X171882Y-58826
X174422Y-61366
X179502Y-58826
X179502Y-63906
X184582Y-61366
X187122Y-58826
T12
X229260Y-94234
X229516Y-64473
X244346Y-109548
X244958Y-48870
X273787Y-48692
X274193Y-109449
X290220Y-93701
X290271Y-64745
T13
X326186Y-100848
X333886Y-100848
X353886Y-100848
X361586Y-100848
T14
X332710Y-125171
X332542Y-195915
X307675Y-161214
X371490Y-157023
X288620Y-195915
X293238Y-75590
X371902Y-75225
X288788Y-124976
X250668Y-163515
T15
X399898Y-165430
X388811Y-53035
T16
X394858Y-99969
X396591Y-216926
X394691Y-131597
X195524Y-64486
X393852Y-144170
X394691Y-156743
X397335Y-53254
X103670Y-64465
X22898Y-64237
X394746Y-125171
X22984Y-216647
X393797Y-112486
T0
M30
