M48
;DRILL file {KiCad 4.0.7} date 02/28/18 02:37:03
;FORMAT={-:-/ absolute / metric / decimal}
FMAT,2
METRIC,TZ
T1C0.400
T2C0.500
T3C0.610
T4C0.700
T5C0.762
T6C0.800
T7C0.813
T8C0.914
T9C1.000
T10C1.016
T11C1.321
T12C1.500
T13C2.000
T14C2.007
T15C2.200
%
G90
G05
M71
T1
X20.218Y-171.577
X20.345Y-174.295
X20.498Y-113.436
X20.574Y-131.115
X25.73Y-81.712
X26.797Y-206.045
X29.159Y-205.969
X29.21Y-200.863
X30.582Y-218.669
X30.963Y-104.775
X31.242Y-138.836
X31.585Y-113.043
X31.674Y-206.096
X31.75Y-180.619
X31.852Y-200.965
X31.877Y-216.205
X31.902Y-136.093
X32.969Y-212.395
X33.071Y-174.269
X33.274Y-133.706
X33.807Y-121.056
X34.366Y-136.322
X34.366Y-214.833
X34.392Y-205.969
X35.712Y-183.159
X35.789Y-140.03
X36.779Y-212.319
X36.957Y-175.565
X36.982Y-218.694
X37.059Y-133.782
X37.109Y-69.113
X39.37Y-218.618
X41.605Y-74.143
X41.885Y-208.534
X42.042Y-169.184
X42.062Y-123.723
X42.062Y-193.294
X44.171Y-71.552
X44.552Y-174.346
X44.602Y-123.698
X45.822Y-66.751
X46.101Y-62.738
X47.168Y-175.565
X47.269Y-81.763
X47.269Y-133.782
X47.777Y-155.27
X48.412Y-161.62
X49.708Y-142.57
X49.733Y-133.756
X49.733Y-172.974
X51.003Y-176.784
X51.079Y-62.586
X53.086Y-64.033
X54.737Y-62.814
X54.839Y-128.626
X57.175Y-208.458
X57.302Y-125.933
X57.302Y-218.592
X57.353Y-169.139
X59.842Y-174.269
X62.382Y-194.589
X62.484Y-142.596
X62.509Y-133.756
X63.627Y-140.081
X63.652Y-145.11
X63.678Y-137.49
X63.805Y-181.381
X65.024Y-80.467
X65.608Y-77.927
X65.634Y-176.936
X67.589Y-79.248
X68.758Y-102.006
X68.783Y-99.492
X69.317Y-91.846
X69.342Y-205.994
X69.393Y-124.104
X69.393Y-129.159
X70.663Y-72.873
X71.501Y-66.446
X71.958Y-208.432
X72.542Y-218.694
X72.593Y-75.26
X72.593Y-131.089
X72.669Y-70.18
X76.352Y-176.784
X77.648Y-165.43
X78.715Y-186.919
X78.943Y-128.702
X79.578Y-72.771
X80.239Y-89.306
X80.264Y-97.003
X80.391Y-94.361
X81.458Y-105.867
X81.509Y-91.948
X82.779Y-143.942
X82.804Y-70.155
X82.804Y-78.511
X85.979Y-89.332
X87.224Y-218.694
X87.732Y-208.636
X87.909Y-126.187
X90.399Y-142.646
X90.576Y-84.277
X90.627Y-71.603
X91.643Y-119.761
X92.253Y-105.791
X93.015Y-67.742
X93.015Y-204.673
X94.234Y-137.643
X94.717Y-188.316
X94.869Y-193.319
X95.453Y-203.53
X95.555Y-108.306
X96.825Y-110.871
X98.12Y-95.682
X98.171Y-93.091
X100.559Y-131.216
X100.635Y-133.756
X102.413Y-169.139
X103.073Y-208.585
X103.073Y-218.719
X103.2Y-105.74
X105.766Y-89.281
X109.169Y-141.402
X109.525Y-115.875
X112.014Y-119.685
X112.014Y-140.157
X113.436Y-157.912
X113.665Y-128.6
X114.097Y-145.186
X114.757Y-70.282
X115.164Y-122.301
X115.849Y-89.306
X116.408Y-181.28
X116.408Y-183.744
X117.653Y-123.571
X118.364Y-131.267
X119.075Y-63.805
X119.228Y-67.716
X120.777Y-218.745
X121.133Y-72.187
X122.644Y-169.253
X122.657Y-208.407
X123.393Y-133.782
X125.959Y-180.594
X125.959Y-183.21
X126.086Y-121.031
X127.254Y-173.025
X129.692Y-175.565
X129.794Y-159.08
X129.972Y-146.558
X130.683Y-60.808
X130.988Y-119.761
X131.14Y-76.733
X131.75Y-84.252
X132.537Y-147.803
X132.944Y-180.746
X133.629Y-114.63
X134.696Y-189.662
X134.823Y-207.289
X134.849Y-152.781
X134.849Y-187.071
X134.95Y-93.167
X135.407Y-156.515
X135.534Y-76.632
X136.017Y-198.476
X136.068Y-203.581
X136.119Y-79.172
X138.684Y-126.009
X138.735Y-143.916
X141.173Y-129.946
X141.199Y-218.719
X141.402Y-72.034
X143.205Y-133.706
X143.205Y-208.585
X143.383Y-169.342
X143.586Y-110.744
X145.745Y-85.522
X146.304Y-143.891
X147.625Y-126.035
X147.625Y-171.78
X147.676Y-67.64
X148.793Y-187.096
X148.844Y-203.429
X148.92Y-75.286
X149.428Y-152.705
X150.012Y-200.914
X150.038Y-198.425
X150.063Y-175.565
X150.089Y-195.936
X150.139Y-180.696
X150.216Y-72.111
X150.292Y-117.145
X151.384Y-183.286
X152.044Y-146.507
X152.451Y-128.803
X152.552Y-193.37
X152.603Y-204.775
X152.629Y-114.656
X152.629Y-200.99
X152.654Y-161.722
X153.365Y-164.236
X153.873Y-198.476
X154.026Y-140.056
X154.051Y-137.516
X154.483Y-183.236
X155.27Y-113.411
X156.464Y-141.3
X156.515Y-126.746
X157.175Y-89.433
X157.785Y-114.656
X157.861Y-94.463
X158.928Y-138.405
X159.029Y-218.796
X160.172Y-105.842
X161.163Y-169.291
X161.163Y-208.483
X161.569Y-85.522
X161.62Y-89.256
X162.281Y-133.706
X162.56Y-110.719
X164.059Y-84.201
X164.109Y-180.086
X164.109Y-183.312
X164.16Y-98.12
X164.313Y-67.666
X165.405Y-129.286
X165.481Y-93.142
X165.481Y-139.954
X165.506Y-135.661
X166.573Y-183.261
X167.005Y-160.426
X167.005Y-195.936
X167.208Y-148.996
X167.335Y-117.17
X167.386Y-134.315
X167.843Y-201.041
X167.919Y-75.286
X167.996Y-103.2
X168.3Y-156.591
X169.113Y-198.425
X169.367Y-159.08
X169.393Y-161.671
X169.901Y-117.17
X170.409Y-103.175
X170.409Y-208.61
X170.434Y-143.916
X170.434Y-182.042
X170.459Y-146.38
X170.536Y-177.013
X171.679Y-100.686
X172.872Y-146.406
X172.974Y-177.038
X173.101Y-98.146
X175.412Y-127.33
X175.489Y-218.897
X175.539Y-138.176
X177.546Y-169.266
X177.571Y-133.756
X177.597Y-208.636
X178.13Y-129.921
X178.257Y-110.795
X179.349Y-177.013
X180.772Y-138.938
X181.407Y-134.95
X181.788Y-176.962
X181.864Y-171.907
X181.991Y-210.668
X183.109Y-154.051
X183.109Y-174.346
X183.134Y-202.26
X183.159Y-199.695
X183.312Y-90.526
X183.896Y-150.165
X184.252Y-94.336
X184.404Y-195.961
X184.455Y-164.16
X184.48Y-183.286
X184.506Y-124.79
X184.506Y-142.646
X184.531Y-72.746
X184.582Y-81.661
X185.369Y-160.35
X185.572Y-199.746
X185.674Y-189.484
X185.725Y-151.511
X185.725Y-203.581
X185.801Y-148.996
X185.852Y-85.395
X185.928Y-104.521
X186.868Y-195.936
X186.919Y-192.151
X186.944Y-181.94
X186.969Y-133.706
X187.02Y-137.617
X187.071Y-82.931
X187.071Y-114.63
X187.096Y-70.307
X187.147Y-63.932
X187.147Y-74.016
X187.147Y-80.34
X187.173Y-77.902
X187.909Y-156.54
X187.96Y-161.747
X188.29Y-176.835
X188.366Y-119.71
X188.392Y-122.276
X188.9Y-218.846
X191.262Y-198.552
X193.548Y-75.336
X193.548Y-117.221
X194.056Y-153.949
X194.132Y-77.749
X194.158Y-90.678
X194.742Y-82.956
X194.818Y-123.596
X195.859Y-198.476
X195.885Y-161.747
X195.885Y-164.287
X195.885Y-209.829
X195.91Y-187.071
X196.012Y-80.442
X196.012Y-140.081
X196.012Y-142.545
X196.799Y-73.939
X197.155Y-145.263
X197.18Y-184.506
X197.231Y-152.781
X197.256Y-150.266
X197.917Y-167.97
X198.374Y-203.708
X198.399Y-195.961
X198.45Y-121.031
X198.476Y-75.26
X198.476Y-136.296
X198.526Y-79.121
X198.603Y-72.187
X198.603Y-140.005
X199.593Y-206.07
X199.695Y-192.049
X199.72Y-83.083
X199.72Y-208.636
X199.796Y-189.484
X201.676Y-113.36
X201.701Y-110.896
X201.879Y-131.369
X202.463Y-66.446
X202.87Y-183.236
X202.971Y-76.733
X203.022Y-79.146
X203.505Y-197.256
X203.581Y-148.971
X203.581Y-151.613
X203.683Y-146.456
X205.003Y-66.446
X205.943Y-180.086
X206.807Y-175.641
X208.864Y-76.556
X209.144Y-190.881
X209.271Y-156.693
X209.855Y-81.737
X209.906Y-154.127
X210.515Y-84.303
X210.591Y-143.866
X210.591Y-148.946
X210.591Y-218.77
X211.125Y-86.766
X211.303Y-89.306
X212.446Y-173.177
X212.471Y-91.872
X212.496Y-96.901
X212.547Y-94.386
X212.547Y-99.466
X212.573Y-67.666
X213.284Y-121.006
X213.792Y-170.51
X214.351Y-104.597
X216.332Y-110.871
X217.221Y-140.716
X217.526Y-144.551
X217.602Y-147.117
X218.11Y-83.033
X218.186Y-81.001
X218.237Y-79.146
X218.237Y-85.471
X218.262Y-77.267
X218.821Y-170.459
X218.846Y-88.011
X218.923Y-133.731
X218.973Y-67.716
X219.405Y-123.698
X219.405Y-142.57
X219.583Y-90.576
X220.142Y-93.32
X220.624Y-138.836
X220.65Y-218.719
X220.701Y-95.682
X220.751Y-98.146
X220.751Y-121.209
X221.361Y-100.711
X221.437Y-123.596
X221.437Y-126.111
X221.463Y-141.376
X222.021Y-103.251
X222.58Y-84.328
X222.656Y-81.737
X222.783Y-66.446
X222.834Y-61.925
X225.298Y-86.106
X228.346Y-188.417
X229.032Y-131.14
X229.592Y-64.371
X230.2Y-126.721
X230.226Y-109.703
X230.835Y-181.991
X231.546Y-129.388
X231.623Y-197.053
X231.673Y-97.765
X231.927Y-175.565
X233.985Y-206.197
X234.036Y-176.251
X234.036Y-203.581
X234.061Y-128.626
X235.331Y-185.826
X235.356Y-201.066
X236.728Y-174.346
X237.312Y-178.232
X238.506Y-206.248
X239.725Y-143.281
X239.751Y-146.329
X239.878Y-114.046
X241.071Y-152.146
X241.071Y-168.097
X241.681Y-163.043
X242.367Y-146.406
X242.418Y-114.706
X242.849Y-148.971
X242.976Y-193.497
X243.484Y-152.73
X243.662Y-195.885
X244.196Y-156.667
X244.856Y-159.131
X244.856Y-193.319
X244.983Y-198.476
X245.008Y-171.856
X245.974Y-184.683
X246.126Y-176.911
X246.151Y-169.393
X247.904Y-156.515
X247.904Y-185.903
X247.929Y-180.721
X247.929Y-187.757
X247.955Y-129.896
X247.955Y-152.806
X247.955Y-154.711
X247.955Y-170.536
X247.955Y-175.641
X247.98Y-146.406
X247.98Y-161.163
X247.98Y-162.916
X248.006Y-164.795
X248.006Y-173.101
X248.006Y-183.21
X248.006Y-189.662
X248.031Y-141.351
X248.031Y-148.92
X248.031Y-166.726
X248.031Y-168.707
X248.031Y-178.156
X248.031Y-193.497
X248.056Y-135.712
X248.056Y-143.866
X248.082Y-131.801
X248.082Y-133.731
X248.082Y-137.566
X248.082Y-159.131
X248.082Y-191.541
X248.107Y-139.471
X248.107Y-195.885
X250.165Y-125.806
X251.358Y-110.007
X251.917Y-106.528
X252.959Y-180.721
X253.06Y-193.446
X253.111Y-188.239
X253.136Y-139.548
X253.136Y-153.441
X253.136Y-161.061
X253.136Y-175.717
X253.136Y-183.439
X253.136Y-190.957
X253.162Y-178.232
X253.187Y-135.712
X253.187Y-141.478
X253.213Y-131.826
X253.213Y-137.617
X253.213Y-173.152
X253.213Y-185.75
X253.289Y-133.833
X256.972Y-138.252
X256.997Y-136.271
X258.496Y-119.761
X259.537Y-106.502
X260.071Y-170.053
X260.172Y-161.722
X260.172Y-166.827
X260.274Y-119.786
X260.68Y-184.556
X260.68Y-193.548
X261.341Y-189.662
X261.391Y-140.284
X262.153Y-119.812
X263.322Y-218.821
X264.008Y-119.761
X264.77Y-166.497
X266.471Y-147.701
X266.471Y-159.182
X266.497Y-161.722
X266.497Y-164.262
X266.573Y-119.761
X267.894Y-141.453
X268.478Y-119.837
X269.037Y-139.497
X270.332Y-119.761
X271.628Y-106.451
X272.263Y-119.812
X273.507Y-218.313
X274.142Y-119.812
X276.022Y-193.421
X276.047Y-119.786
X277.19Y-188.417
X277.317Y-190.906
X277.724Y-124.816
X278.003Y-119.659
X278.003Y-195.936
X279.756Y-189.484
X279.806Y-144.018
X282.626Y-132.537
X284.988Y-99.543
X285.039Y-112.827
X285.191Y-53.67
X287.503Y-119.024
X287.553Y-112.878
X287.579Y-122.326
X287.706Y-98.222
X287.731Y-103.937
X288.544Y-195.936
X289.433Y-120.498
X293.319Y-109.728
X295.3Y-67.818
X295.859Y-76.124
X295.859Y-104.597
X297.79Y-119.761
X297.866Y-75.997
X298.171Y-91.313
X301.371Y-116.053
X306.705Y-97.765
X307.111Y-217.932
X307.137Y-196.088
X311.15Y-113.538
X311.582Y-171.221
X317.221Y-218.135
X318.008Y-100.127
X319.329Y-97.638
X322.301Y-101.981
X322.478Y-97.587
X323.621Y-196.088
X324.46Y-138.176
X324.891Y-107.036
X326.796Y-155.981
X332.588Y-91.948
X332.588Y-196.164
X333.959Y-109.499
X337.109Y-97.663
X341.325Y-122.022
X342.976Y-69.037
X344.653Y-145.313
X347.167Y-173.609
X347.396Y-68.529
X349.758Y-166.268
X352.349Y-135.128
X352.4Y-75.463
X354.381Y-69.088
X354.432Y-73.533
X359.334Y-74.955
X360.655Y-89.459
X361.417Y-82.347
X361.899Y-77.978
X362.483Y-87.503
X362.534Y-89.51
X363.982Y-79.223
X364.998Y-135.077
X365.684Y-83.058
X365.709Y-206.121
X365.785Y-193.497
X366.852Y-169.977
X366.954Y-199.72
X371.475Y-127.508
X371.602Y-156.921
X373.99Y-163.119
X374.066Y-183.464
X376.403Y-183.642
X376.58Y-163.093
X382.168Y-192.126
X382.245Y-102.972
X382.321Y-204.699
X382.88Y-198.425
X385.394Y-192.176
X385.47Y-204.8
X387.071Y-71.196
X387.147Y-78.384
X389.585Y-66.218
X389.585Y-76.149
X393.751Y-175.692
X394.411Y-204.8
X394.919Y-139.548
X394.945Y-147.625
X399.796Y-165.456
T2
X293.189Y-51.998
X372.189Y-51.998
T3
X37.038Y-75.448
X37.038Y-77.988
X37.038Y-80.528
X37.038Y-83.068
X37.038Y-85.608
X37.038Y-88.148
X37.038Y-90.688
X37.038Y-93.228
X37.038Y-95.768
X37.038Y-98.308
X37.038Y-100.848
X37.038Y-103.388
X37.038Y-105.928
X37.038Y-108.468
X37.038Y-111.008
X37.038Y-113.548
X37.038Y-116.088
X37.038Y-118.628
X37.038Y-121.168
X37.038Y-123.708
X52.278Y-75.448
X52.278Y-77.988
X52.278Y-80.528
X52.278Y-83.068
X52.278Y-85.608
X52.278Y-88.148
X52.278Y-90.688
X52.278Y-93.228
X52.278Y-95.768
X52.278Y-98.308
X52.278Y-100.848
X52.278Y-103.388
X52.278Y-105.928
X52.278Y-108.468
X52.278Y-111.008
X52.278Y-113.548
X52.278Y-116.088
X52.278Y-118.628
X52.278Y-121.168
X52.278Y-123.708
X62.504Y-75.438
X62.504Y-77.978
X62.504Y-80.518
X62.504Y-83.058
X62.504Y-85.598
X62.504Y-88.138
X62.504Y-90.678
X62.504Y-93.218
X62.504Y-95.758
X62.504Y-98.298
X62.504Y-100.838
X62.504Y-103.378
X62.504Y-105.918
X62.504Y-108.458
X62.504Y-110.998
X62.504Y-113.538
X62.504Y-116.078
X62.504Y-118.618
X62.504Y-121.158
X62.504Y-123.698
X77.744Y-75.438
X77.744Y-77.978
X77.744Y-80.518
X77.744Y-83.058
X77.744Y-85.598
X77.744Y-88.138
X77.744Y-90.678
X77.744Y-93.218
X77.744Y-95.758
X77.744Y-98.298
X77.744Y-100.838
X77.744Y-103.378
X77.744Y-105.918
X77.744Y-108.458
X77.744Y-110.998
X77.744Y-113.538
X77.744Y-116.078
X77.744Y-118.618
X77.744Y-121.158
X77.744Y-123.698
X191.023Y-75.357
X191.023Y-77.897
X191.023Y-80.437
X191.023Y-82.977
X191.023Y-85.517
X191.023Y-88.057
X191.023Y-90.597
X191.023Y-93.137
X191.023Y-95.677
X191.023Y-98.217
X191.023Y-100.757
X191.023Y-103.297
X191.023Y-105.837
X191.023Y-108.377
X191.023Y-110.917
X191.023Y-113.457
X191.023Y-115.997
X191.023Y-118.537
X191.023Y-121.077
X191.023Y-123.617
X206.263Y-75.357
X206.263Y-77.897
X206.263Y-80.437
X206.263Y-82.977
X206.263Y-85.517
X206.263Y-88.057
X206.263Y-90.597
X206.263Y-93.137
X206.263Y-95.677
X206.263Y-98.217
X206.263Y-100.757
X206.263Y-103.297
X206.263Y-105.837
X206.263Y-108.377
X206.263Y-110.917
X206.263Y-113.457
X206.263Y-115.997
X206.263Y-118.537
X206.263Y-121.077
X206.263Y-123.617
X255.803Y-143.942
X255.803Y-146.482
X255.803Y-149.022
X255.803Y-151.562
X255.803Y-154.102
X255.803Y-156.642
X255.803Y-159.182
X255.803Y-161.722
X255.803Y-164.262
X255.803Y-166.802
X255.803Y-169.342
X255.803Y-171.882
X255.803Y-174.422
X255.803Y-176.962
X255.803Y-179.502
X255.803Y-182.042
X255.803Y-184.582
X255.803Y-187.122
X255.803Y-189.662
X255.803Y-192.202
X271.043Y-143.942
X271.043Y-146.482
X271.043Y-149.022
X271.043Y-151.562
X271.043Y-154.102
X271.043Y-156.642
X271.043Y-159.182
X271.043Y-161.722
X271.043Y-164.262
X271.043Y-166.802
X271.043Y-169.342
X271.043Y-171.882
X271.043Y-174.422
X271.043Y-176.962
X271.043Y-179.502
X271.043Y-182.042
X271.043Y-184.582
X271.043Y-187.122
X271.043Y-189.662
X271.043Y-192.202
T4
X270.967Y-136.271
X270.967Y-141.351
T5
X122.879Y-56.896
X126.829Y-56.896
X130.779Y-56.896
X134.729Y-56.896
X139.479Y-56.896
X143.429Y-56.896
T6
X232.516Y-98.853
X282.473Y-129.
X282.473Y-144.
X286.283Y-128.974
X286.283Y-143.974
X287.516Y-98.853
X287.516Y-101.393
X287.516Y-103.933
X311.102Y-94.48
X313.642Y-94.48
X316.182Y-94.48
X316.883Y-129.032
X318.722Y-94.48
X321.262Y-94.48
X323.802Y-94.48
X326.342Y-94.48
X328.882Y-94.48
X331.422Y-94.48
X331.883Y-129.032
X333.962Y-94.48
X351.224Y-130.607
X366.224Y-130.607
X375.303Y-82.347
X379.755Y-54.69
X379.755Y-57.19
X379.755Y-62.19
X379.755Y-64.69
X390.303Y-82.347
T7
X20.396Y-152.883
X20.406Y-185.638
X20.411Y-178.079
X20.419Y-169.078
X20.422Y-193.269
X20.447Y-190.779
X20.452Y-149.004
X20.452Y-156.604
X20.461Y-164.222
X20.467Y-128.641
X20.472Y-145.136
X20.544Y-188.138
X20.544Y-195.819
X20.625Y-160.376
X27.813Y-72.918
X27.813Y-75.458
X27.813Y-77.998
X27.813Y-80.538
X27.813Y-83.078
X27.813Y-85.618
X27.813Y-88.158
X27.813Y-90.698
X27.813Y-93.238
X27.813Y-95.778
X27.813Y-98.318
X27.813Y-100.858
X27.813Y-103.398
X27.813Y-105.938
X27.813Y-108.478
X27.813Y-111.018
X27.813Y-113.558
X27.813Y-116.098
X27.813Y-118.638
X27.813Y-121.178
X33.096Y-152.883
X33.106Y-185.638
X33.111Y-178.079
X33.119Y-169.078
X33.122Y-193.269
X33.147Y-190.779
X33.152Y-149.004
X33.152Y-156.604
X33.161Y-164.222
X33.167Y-128.641
X33.172Y-145.136
X33.244Y-188.138
X33.244Y-195.819
X33.325Y-160.376
X36.961Y-185.722
X36.961Y-188.262
X36.961Y-190.802
X36.961Y-193.342
X36.961Y-195.882
X36.961Y-198.422
X36.961Y-200.962
X36.962Y-169.184
X36.965Y-148.968
X36.965Y-151.508
X36.965Y-154.048
X36.965Y-156.588
X36.965Y-159.128
X36.965Y-161.668
X36.965Y-164.208
X36.982Y-208.458
X37.064Y-128.666
X43.904Y-177.932
X44.581Y-185.722
X44.581Y-188.262
X44.581Y-190.802
X44.581Y-193.342
X44.581Y-195.882
X44.581Y-198.422
X44.581Y-200.962
X44.585Y-148.968
X44.585Y-151.508
X44.585Y-154.048
X44.585Y-156.588
X44.585Y-159.128
X44.585Y-161.668
X44.585Y-164.208
X46.444Y-177.932
X48.402Y-190.612
X48.402Y-193.152
X49.662Y-169.184
X49.682Y-208.458
X49.764Y-128.666
X52.189Y-146.408
X52.189Y-148.948
X52.189Y-151.488
X52.189Y-154.028
X52.189Y-156.568
X52.189Y-159.108
X52.189Y-161.648
X52.189Y-164.188
X52.227Y-208.445
X52.273Y-169.215
X52.461Y-185.722
X52.461Y-188.262
X52.461Y-190.802
X52.461Y-193.342
X52.461Y-195.882
X52.461Y-198.422
X52.461Y-200.962
X52.461Y-203.502
X59.809Y-146.408
X59.809Y-148.948
X59.809Y-151.488
X59.809Y-154.028
X59.809Y-156.568
X59.809Y-159.108
X59.809Y-161.648
X59.809Y-164.188
X60.081Y-185.722
X60.081Y-188.262
X60.081Y-190.802
X60.081Y-193.342
X60.081Y-195.882
X60.081Y-198.422
X60.081Y-200.962
X60.081Y-203.502
X61.961Y-63.947
X62.545Y-128.666
X64.501Y-63.947
X64.927Y-208.445
X64.973Y-169.215
X67.041Y-63.947
X67.432Y-208.448
X67.461Y-185.722
X67.461Y-188.262
X67.461Y-190.802
X67.461Y-193.342
X67.461Y-195.882
X67.461Y-198.422
X67.461Y-200.962
X67.461Y-203.502
X67.513Y-146.357
X67.513Y-148.897
X67.513Y-151.437
X67.513Y-153.977
X67.513Y-156.517
X67.513Y-159.057
X67.513Y-161.597
X67.513Y-164.137
X67.531Y-169.222
X69.581Y-63.947
X72.121Y-63.947
X74.661Y-63.947
X75.081Y-185.722
X75.081Y-188.262
X75.081Y-190.802
X75.081Y-193.342
X75.081Y-195.882
X75.081Y-198.422
X75.081Y-200.962
X75.081Y-203.502
X75.133Y-146.357
X75.133Y-148.897
X75.133Y-151.437
X75.133Y-153.977
X75.133Y-156.517
X75.133Y-159.057
X75.133Y-161.597
X75.133Y-164.137
X75.245Y-128.666
X77.201Y-63.947
X78.887Y-180.523
X79.741Y-63.947
X80.132Y-208.448
X80.231Y-169.222
X81.961Y-185.722
X81.961Y-188.262
X81.961Y-190.802
X81.961Y-193.342
X81.961Y-195.882
X81.961Y-198.422
X81.961Y-200.962
X81.961Y-203.502
X82.69Y-208.437
X82.715Y-146.357
X82.715Y-148.897
X82.715Y-151.437
X82.715Y-153.977
X82.715Y-156.517
X82.715Y-159.057
X82.715Y-161.597
X82.715Y-164.137
X82.982Y-169.24
X84.277Y-61.62
X84.277Y-74.32
X87.833Y-108.28
X87.981Y-75.367
X87.981Y-77.907
X87.981Y-80.447
X87.981Y-82.987
X87.981Y-85.527
X87.981Y-88.067
X87.981Y-90.607
X87.981Y-93.147
X87.981Y-95.687
X87.981Y-98.227
X87.981Y-100.767
X87.981Y-103.307
X89.581Y-185.722
X89.581Y-188.262
X89.581Y-190.802
X89.581Y-193.342
X89.581Y-195.882
X89.581Y-198.422
X89.581Y-200.962
X89.581Y-203.502
X90.335Y-146.357
X90.335Y-148.897
X90.335Y-151.437
X90.335Y-153.977
X90.335Y-156.517
X90.335Y-159.057
X90.335Y-161.597
X90.335Y-164.137
X91.587Y-180.523
X95.39Y-208.437
X95.682Y-169.24
X97.881Y-208.6
X97.961Y-185.722
X97.961Y-188.262
X97.961Y-190.802
X97.961Y-193.342
X97.961Y-195.882
X97.961Y-198.422
X97.961Y-200.962
X97.961Y-203.502
X97.978Y-146.365
X97.978Y-148.905
X97.978Y-151.445
X97.978Y-153.985
X97.978Y-156.525
X97.978Y-159.065
X97.978Y-161.605
X97.978Y-164.145
X97.993Y-169.189
X100.533Y-108.28
X103.221Y-75.367
X103.221Y-77.907
X103.221Y-80.447
X103.221Y-82.987
X103.221Y-85.527
X103.221Y-88.067
X103.221Y-90.607
X103.221Y-93.147
X103.221Y-95.687
X103.221Y-98.227
X103.221Y-100.767
X103.221Y-103.307
X105.581Y-185.722
X105.581Y-188.262
X105.581Y-190.802
X105.581Y-193.342
X105.581Y-195.882
X105.581Y-198.422
X105.581Y-200.962
X105.581Y-203.502
X105.598Y-146.365
X105.598Y-148.905
X105.598Y-151.445
X105.598Y-153.985
X105.598Y-156.525
X105.598Y-159.065
X105.598Y-161.605
X105.598Y-164.145
X110.581Y-208.6
X110.693Y-169.189
X110.703Y-146.472
X110.703Y-149.012
X110.703Y-151.552
X110.703Y-154.092
X110.703Y-156.632
X110.703Y-159.172
X110.703Y-161.712
X110.703Y-164.252
X110.734Y-185.776
X110.734Y-188.316
X110.734Y-190.856
X110.734Y-193.396
X110.734Y-195.936
X110.734Y-198.476
X110.734Y-201.016
X110.734Y-203.556
X110.846Y-64.13
X113.208Y-108.179
X113.241Y-75.275
X113.241Y-77.815
X113.241Y-80.355
X113.241Y-82.895
X113.241Y-85.435
X113.241Y-87.975
X113.241Y-90.515
X113.241Y-93.055
X113.241Y-95.595
X113.241Y-98.135
X113.241Y-100.675
X113.241Y-103.215
X118.255Y-146.411
X118.255Y-148.951
X118.255Y-151.491
X118.255Y-154.031
X118.255Y-156.571
X118.255Y-159.111
X118.255Y-161.651
X118.255Y-164.191
X118.255Y-185.715
X118.255Y-188.255
X118.255Y-190.795
X118.255Y-193.335
X118.255Y-195.875
X118.255Y-198.415
X118.255Y-200.955
X118.255Y-203.495
X118.262Y-169.144
X118.288Y-208.559
X120.879Y-127.432
X122.245Y-67.727
X123.546Y-64.13
X125.875Y-146.411
X125.875Y-148.951
X125.875Y-151.491
X125.875Y-154.031
X125.875Y-156.571
X125.875Y-159.111
X125.875Y-161.651
X125.875Y-164.191
X125.875Y-185.715
X125.875Y-188.255
X125.875Y-190.795
X125.875Y-193.335
X125.875Y-195.875
X125.875Y-198.415
X125.875Y-200.955
X125.875Y-203.495
X125.908Y-108.179
X127.406Y-63.906
X128.481Y-75.275
X128.481Y-77.815
X128.481Y-80.355
X128.481Y-82.895
X128.481Y-85.435
X128.481Y-87.975
X128.481Y-90.515
X128.481Y-93.055
X128.481Y-95.595
X128.481Y-98.135
X128.481Y-100.675
X128.481Y-103.215
X130.962Y-169.144
X130.988Y-208.559
X133.579Y-127.432
X134.813Y-137.561
X134.945Y-67.727
X137.566Y-67.716
X138.669Y-180.746
X138.669Y-183.286
X138.669Y-185.826
X138.669Y-188.366
X138.669Y-190.906
X138.669Y-193.446
X138.669Y-195.986
X138.669Y-198.526
X138.669Y-201.066
X138.669Y-203.606
X138.735Y-108.153
X138.735Y-146.431
X138.735Y-148.971
X138.735Y-151.511
X138.735Y-154.051
X138.735Y-156.591
X138.735Y-159.131
X138.735Y-161.671
X138.735Y-164.211
X138.735Y-208.585
X138.748Y-169.278
X138.844Y-75.288
X138.844Y-77.828
X138.844Y-80.368
X138.844Y-82.908
X138.844Y-85.448
X138.844Y-87.988
X138.844Y-90.528
X138.844Y-93.068
X138.844Y-95.608
X138.844Y-98.148
X138.844Y-100.688
X138.844Y-103.228
X140.106Y-63.906
X146.289Y-180.746
X146.289Y-183.286
X146.289Y-185.826
X146.289Y-188.366
X146.289Y-190.906
X146.289Y-193.446
X146.289Y-195.986
X146.289Y-198.526
X146.289Y-201.066
X146.289Y-203.606
X146.355Y-146.431
X146.355Y-148.971
X146.355Y-151.511
X146.355Y-154.051
X146.355Y-156.591
X146.355Y-159.131
X146.355Y-161.671
X146.355Y-164.211
X147.513Y-137.561
X147.66Y-63.901
X150.266Y-67.716
X151.435Y-108.153
X151.435Y-208.585
X151.447Y-169.278
X154.084Y-75.288
X154.084Y-77.828
X154.084Y-80.368
X154.084Y-82.908
X154.084Y-85.448
X154.084Y-87.988
X154.084Y-90.528
X154.084Y-93.068
X154.084Y-95.608
X154.084Y-98.148
X154.084Y-100.688
X154.084Y-103.228
X155.169Y-208.61
X156.421Y-169.233
X156.5Y-146.431
X156.5Y-148.971
X156.5Y-151.511
X156.5Y-154.051
X156.5Y-156.591
X156.5Y-159.131
X156.5Y-161.671
X156.5Y-164.211
X156.5Y-188.252
X156.5Y-190.792
X156.5Y-193.332
X156.5Y-195.872
X156.5Y-198.412
X156.5Y-200.952
X156.5Y-203.492
X160.284Y-131.105
X160.304Y-128.565
X160.315Y-126.111
X160.36Y-63.901
X164.12Y-146.431
X164.12Y-148.971
X164.12Y-151.511
X164.12Y-154.051
X164.12Y-156.591
X164.12Y-159.131
X164.12Y-161.671
X164.12Y-164.211
X164.12Y-188.252
X164.12Y-190.792
X164.12Y-193.332
X164.12Y-195.872
X164.12Y-198.412
X164.12Y-200.952
X164.12Y-203.492
X167.869Y-208.61
X168.544Y-193.38
X168.544Y-206.08
X169.121Y-169.233
X172.984Y-131.105
X172.999Y-208.686
X173.004Y-128.565
X173.015Y-126.111
X173.025Y-149.022
X173.025Y-151.562
X173.025Y-154.102
X173.025Y-156.642
X173.025Y-159.182
X173.025Y-161.722
X173.025Y-164.262
X173.05Y-188.265
X173.05Y-190.805
X173.05Y-193.345
X173.05Y-195.885
X173.05Y-198.425
X173.05Y-200.965
X173.05Y-203.505
X173.126Y-169.189
X173.172Y-75.306
X173.172Y-77.846
X173.172Y-80.386
X173.172Y-82.926
X173.172Y-85.466
X173.172Y-88.006
X173.172Y-90.546
X173.172Y-93.086
X173.172Y-95.626
X173.177Y-108.306
X180.645Y-149.022
X180.645Y-151.562
X180.645Y-154.102
X180.645Y-156.642
X180.645Y-159.182
X180.645Y-161.722
X180.645Y-164.262
X180.67Y-188.265
X180.67Y-190.805
X180.67Y-193.345
X180.67Y-195.885
X180.67Y-198.425
X180.67Y-200.965
X180.67Y-203.505
X180.792Y-75.306
X180.792Y-77.846
X180.792Y-80.386
X180.792Y-82.926
X180.792Y-85.466
X180.792Y-88.006
X180.792Y-90.546
X180.792Y-93.086
X180.792Y-95.626
X184.526Y-127.366
X184.526Y-129.906
X185.699Y-208.686
X185.826Y-169.189
X185.877Y-108.306
X190.919Y-133.761
X190.919Y-136.301
X190.919Y-138.841
X190.919Y-141.381
X190.919Y-143.921
X190.919Y-146.461
X190.919Y-149.001
X190.919Y-151.541
X190.919Y-154.081
X190.919Y-156.621
X190.919Y-159.161
X190.919Y-161.701
X190.919Y-164.241
X190.919Y-166.781
X190.932Y-171.78
X191.999Y-190.805
X191.999Y-203.505
X194.666Y-190.83
X194.666Y-203.53
X194.767Y-128.676
X203.632Y-171.78
X206.159Y-133.761
X206.159Y-136.301
X206.159Y-138.841
X206.159Y-141.381
X206.159Y-143.921
X206.159Y-146.461
X206.159Y-149.001
X206.159Y-151.541
X206.159Y-154.081
X206.159Y-156.621
X206.159Y-159.161
X206.159Y-161.701
X206.159Y-164.241
X206.159Y-166.781
X207.467Y-128.676
X209.296Y-170.485
X209.296Y-173.025
X211.709Y-184.734
X211.709Y-197.434
X212.512Y-117.892
X212.512Y-130.592
X213.677Y-133.749
X213.677Y-136.289
X213.677Y-138.829
X213.677Y-141.369
X213.677Y-143.909
X213.677Y-146.449
X213.677Y-148.989
X213.677Y-151.529
X213.677Y-154.069
X213.677Y-156.609
X213.677Y-159.149
X213.677Y-161.689
X213.677Y-164.229
X213.677Y-166.769
X215.367Y-173.203
X215.6Y-184.81
X215.6Y-197.51
X218.034Y-184.785
X218.034Y-197.485
X218.77Y-117.881
X218.77Y-130.581
X220.523Y-184.76
X220.523Y-197.46
X222.783Y-53.746
X222.783Y-66.446
X223.236Y-184.719
X223.236Y-197.419
X225.684Y-218.874
X227.152Y-184.607
X227.152Y-197.307
X228.067Y-173.203
X228.224Y-218.874
X228.917Y-133.749
X228.917Y-136.289
X228.917Y-138.829
X228.917Y-141.369
X228.917Y-143.909
X228.917Y-146.449
X228.917Y-148.989
X228.917Y-151.529
X228.917Y-154.069
X228.917Y-156.609
X228.917Y-159.149
X228.917Y-161.689
X228.917Y-164.229
X228.917Y-166.769
X232.225Y-118.529
X234.025Y-155.291
X234.025Y-167.991
X234.036Y-123.535
X234.036Y-136.235
X234.137Y-138.786
X234.137Y-151.486
X234.765Y-118.529
X234.787Y-218.808
X237.327Y-218.808
X237.795Y-155.27
X237.795Y-167.97
X237.871Y-138.735
X237.871Y-151.435
X237.924Y-123.622
X237.924Y-136.322
X238.476Y-194.742
X238.476Y-197.282
X238.476Y-199.822
X239.227Y-118.45
X241.767Y-118.45
X243.459Y-206.197
X243.459Y-218.897
X248.031Y-206.172
X248.031Y-218.872
X251.816Y-206.197
X251.816Y-218.897
X260.906Y-206.273
X262.153Y-128.626
X262.255Y-131.14
X263.446Y-206.273
X267.741Y-206.019
X267.741Y-218.719
X274.853Y-128.626
X274.955Y-131.14
X275.184Y-183.159
X275.361Y-179.553
X275.412Y-175.692
X275.565Y-171.933
X276.86Y-115.966
X279.4Y-115.966
X279.756Y-149.022
X279.806Y-146.583
X279.806Y-154.153
X279.806Y-159.08
X279.857Y-151.587
X279.883Y-156.566
X282.285Y-190.83
X282.372Y-166.878
X282.499Y-119.761
X282.55Y-116.662
X284.785Y-188.33
X285.217Y-206.197
X287.285Y-190.83
X287.884Y-183.159
X288.061Y-179.553
X288.112Y-175.692
X288.265Y-171.933
X290.043Y-161.239
X290.17Y-128.676
X290.17Y-141.376
X290.297Y-163.525
X291.313Y-188.341
X291.338Y-183.337
X291.414Y-185.674
X291.414Y-190.983
X291.77Y-170.688
X291.948Y-175.108
X291.998Y-177.546
X292.456Y-149.022
X292.506Y-146.583
X292.506Y-154.153
X292.506Y-159.08
X292.557Y-151.587
X292.583Y-156.566
X295.072Y-166.878
X295.072Y-180.823
X295.199Y-119.761
X295.224Y-130.658
X295.25Y-116.662
X297.002Y-149.149
X297.002Y-151.689
X297.002Y-154.229
X297.612Y-180.823
X297.764Y-130.658
X298.254Y-98.082
X298.254Y-100.622
X298.882Y-166.853
X300.152Y-180.823
X300.805Y-119.835
X301.422Y-102.006
X301.422Y-130.556
X301.422Y-143.256
X301.422Y-166.853
X301.498Y-145.771
X301.498Y-158.471
X301.549Y-113.309
X302.133Y-98.268
X302.743Y-161.239
X302.997Y-163.525
X303.345Y-119.835
X303.962Y-166.853
X304.013Y-188.341
X304.038Y-183.337
X304.089Y-113.309
X304.114Y-185.674
X304.114Y-190.983
X304.47Y-170.688
X304.648Y-175.108
X304.698Y-177.546
X305.885Y-119.835
X306.629Y-113.309
X311.074Y-107.239
X311.074Y-119.939
X311.531Y-190.83
X311.582Y-133.096
X311.582Y-185.699
X311.582Y-188.189
X311.76Y-135.458
X313.004Y-173.711
X313.004Y-181.331
X313.563Y-128.067
X313.563Y-130.607
X313.588Y-107.188
X313.588Y-119.888
X314.122Y-102.006
X314.173Y-163.576
X314.223Y-161.138
X314.223Y-171.221
X314.35Y-153.518
X314.833Y-98.268
X315.366Y-143.688
X315.366Y-148.514
X315.544Y-173.711
X315.544Y-181.331
X316.205Y-107.061
X316.205Y-119.761
X318.084Y-173.711
X318.084Y-181.331
X318.727Y-107.173
X318.727Y-119.873
X319.354Y-183.845
X320.624Y-173.711
X320.624Y-181.331
X321.709Y-107.132
X321.709Y-119.832
X323.164Y-173.711
X323.164Y-181.331
X323.783Y-206.197
X324.231Y-190.83
X324.282Y-133.096
X324.282Y-185.699
X324.282Y-188.189
X324.46Y-135.458
X325.222Y-113.665
X325.704Y-173.711
X325.704Y-181.331
X326.288Y-206.096
X326.288Y-218.796
X326.873Y-163.576
X326.923Y-161.138
X326.923Y-171.221
X327.05Y-138.201
X327.05Y-150.901
X327.05Y-153.518
X328.016Y-191.44
X328.244Y-173.711
X328.244Y-181.331
X328.905Y-206.07
X328.905Y-218.77
X329.514Y-188.925
X330.784Y-173.711
X330.784Y-181.331
X330.835Y-162.357
X330.835Y-169.977
X331.343Y-206.146
X331.343Y-218.846
X331.775Y-158.521
X331.978Y-135.128
X331.978Y-137.668
X331.978Y-140.208
X331.978Y-142.748
X331.978Y-145.288
X331.978Y-147.828
X331.978Y-150.368
X332.054Y-183.845
X333.375Y-162.357
X333.375Y-169.977
X333.578Y-206.121
X334.594Y-130.607
X334.696Y-180.035
X335.915Y-162.357
X335.915Y-169.977
X336.031Y-185.369
X338.455Y-162.357
X338.455Y-169.977
X338.531Y-187.869
X339.257Y-92.24
X339.598Y-135.128
X339.598Y-137.668
X339.598Y-140.208
X339.598Y-142.748
X339.598Y-145.288
X339.598Y-147.828
X339.598Y-150.368
X340.716Y-191.44
X340.995Y-162.357
X340.995Y-169.977
X341.031Y-185.369
X342.214Y-188.925
X343.535Y-162.357
X343.535Y-169.977
X344.257Y-92.24
X344.475Y-158.521
X346.075Y-162.357
X346.075Y-169.977
X347.243Y-158.699
X347.294Y-130.607
X347.396Y-180.035
X348.615Y-162.357
X348.615Y-169.977
X348.615Y-184.531
X348.615Y-192.151
X349.235Y-91.806
X349.758Y-181.508
X351.155Y-184.531
X351.155Y-192.151
X351.815Y-169.977
X352.273Y-167.513
X352.425Y-162.382
X352.425Y-164.795
X353.035Y-178.892
X353.695Y-184.531
X353.695Y-192.151
X356.235Y-184.531
X356.235Y-192.151
X356.743Y-174.498
X358.775Y-184.531
X358.775Y-192.151
X359.283Y-174.498
X359.943Y-158.699
X361.315Y-184.531
X361.315Y-192.151
X361.823Y-174.498
X361.935Y-91.806
X362.458Y-181.508
X363.788Y-113.665
X363.855Y-184.531
X363.855Y-192.151
X364.515Y-169.977
X364.973Y-167.513
X365.125Y-162.382
X365.125Y-164.795
X365.735Y-178.892
X365.801Y-114.626
X365.801Y-119.826
X372.14Y-218.785
X372.144Y-206.121
X372.202Y-86.665
X374.202Y-86.665
X374.701Y-114.626
X374.701Y-119.826
X375.412Y-67.275
X375.412Y-69.275
X377.838Y-86.639
X377.838Y-91.719
X377.841Y-78.562
X378.857Y-67.208
X379.841Y-78.562
X380.857Y-67.208
X381.838Y-86.639
X381.838Y-91.719
X382.168Y-181.407
X382.295Y-177.673
X384.099Y-67.351
X384.099Y-69.351
X384.226Y-61.636
X384.226Y-63.636
X384.84Y-218.785
X385.838Y-86.639
X385.838Y-91.719
X394.868Y-181.407
X394.995Y-177.673
X398.838Y-86.639
X398.838Y-91.719
T8
X395.448Y-194.688
X395.448Y-197.228
X395.448Y-199.768
T9
X306.019Y-79.248
X306.019Y-84.328
X308.559Y-79.248
X308.559Y-84.328
X311.099Y-79.248
X311.099Y-84.328
X313.639Y-79.248
X313.639Y-84.328
X316.179Y-79.248
X316.179Y-84.328
X318.719Y-79.248
X318.719Y-84.328
X321.259Y-79.248
X321.259Y-84.328
X323.799Y-79.248
X323.799Y-84.328
X326.339Y-79.248
X326.339Y-84.328
X328.879Y-79.248
X328.879Y-84.328
X331.419Y-79.248
X331.419Y-84.328
X332.283Y-154.762
X333.959Y-79.248
X333.959Y-84.328
X336.499Y-79.248
X336.499Y-84.328
X337.185Y-154.61
X339.039Y-79.248
X339.039Y-84.328
X341.579Y-79.248
X341.579Y-84.328
X344.119Y-79.248
X344.119Y-84.328
X346.659Y-79.248
X346.659Y-84.328
X348.336Y-155.016
X349.199Y-79.248
X349.199Y-84.328
X351.739Y-79.248
X351.739Y-84.328
X354.279Y-79.248
X354.279Y-84.328
X356.819Y-79.248
X356.819Y-84.328
X359.359Y-79.248
X359.359Y-84.328
T10
X275.323Y-199.103
X277.863Y-199.103
X280.403Y-199.103
X301.473Y-107.163
X304.013Y-107.163
X306.553Y-107.163
X375.295Y-124.927
X375.295Y-127.467
X375.295Y-130.007
X385.331Y-138.57
X385.331Y-141.313
X385.331Y-144.056
X385.331Y-146.799
X385.331Y-149.542
X385.389Y-107.
X385.389Y-109.743
X385.389Y-112.486
X385.389Y-115.23
X385.389Y-117.973
X387.871Y-139.941
X387.871Y-142.684
X387.871Y-145.428
X387.871Y-148.171
X387.929Y-108.372
X387.929Y-111.115
X387.929Y-113.858
X387.929Y-116.601
T11
X174.422Y-48.666
X184.582Y-48.666
X204.165Y-48.717
X214.325Y-48.717
X387.104Y-66.018
X387.104Y-71.018
X387.104Y-76.018
X389.604Y-68.518
X389.604Y-73.518
X392.104Y-66.018
X392.104Y-71.018
X392.104Y-76.018
X402.104Y-66.018
X402.104Y-76.018
T12
X171.882Y-58.826
X174.422Y-61.366
X179.502Y-58.826
X179.502Y-63.906
X184.582Y-61.366
X187.122Y-58.826
X201.625Y-58.877
X204.165Y-61.417
X209.245Y-58.877
X214.325Y-61.417
X216.865Y-58.877
T13
X229.26Y-94.234
X229.516Y-64.473
X244.45Y-109.525
X244.958Y-48.87
X273.787Y-48.692
X274.193Y-109.449
X290.22Y-93.701
X290.271Y-64.745
T14
X326.415Y-101.219
X334.035Y-101.219
X354.025Y-101.244
X361.645Y-101.244
T15
X293.218Y-75.641
X371.856Y-75.26
T0
M30
